<mxfile host="app.diagrams.net" modified="2024-02-12T14:51:45.458Z" agent="Mozilla/5.0 (Windows NT 10.0; Win64; x64) AppleWebKit/537.36 (KHTML, like Gecko) Chrome/121.0.0.0 Safari/537.36" etag="g46gwATvkTWdNvoCrSHW" version="23.1.1" type="device">
  <diagram name="PÃ¡gina-1" id="Q25oF6yWcy1YTkD39kgR">
    <mxGraphModel dx="880" dy="460" grid="1" gridSize="10" guides="1" tooltips="1" connect="1" arrows="1" fold="1" page="1" pageScale="1" pageWidth="827" pageHeight="1169" math="0" shadow="0">
      <root>
        <mxCell id="0" />
        <mxCell id="1" parent="0" />
        <mxCell id="BrHOTUcKLxsAqnwu4U0T-9" value="" style="edgeStyle=orthogonalEdgeStyle;rounded=0;orthogonalLoop=1;jettySize=auto;html=1;" edge="1" parent="1" source="BrHOTUcKLxsAqnwu4U0T-1" target="BrHOTUcKLxsAqnwu4U0T-2">
          <mxGeometry relative="1" as="geometry" />
        </mxCell>
        <mxCell id="BrHOTUcKLxsAqnwu4U0T-1" value="Inicio" style="ellipse;whiteSpace=wrap;html=1;" vertex="1" parent="1">
          <mxGeometry x="350" y="40" width="120" height="80" as="geometry" />
        </mxCell>
        <mxCell id="BrHOTUcKLxsAqnwu4U0T-10" value="" style="edgeStyle=orthogonalEdgeStyle;rounded=0;orthogonalLoop=1;jettySize=auto;html=1;" edge="1" parent="1" source="BrHOTUcKLxsAqnwu4U0T-2" target="BrHOTUcKLxsAqnwu4U0T-3">
          <mxGeometry relative="1" as="geometry" />
        </mxCell>
        <mxCell id="BrHOTUcKLxsAqnwu4U0T-2" value="Leer X&amp;nbsp;" style="shape=parallelogram;perimeter=parallelogramPerimeter;whiteSpace=wrap;html=1;fixedSize=1;" vertex="1" parent="1">
          <mxGeometry x="350" y="160" width="120" height="60" as="geometry" />
        </mxCell>
        <mxCell id="BrHOTUcKLxsAqnwu4U0T-12" value="" style="edgeStyle=orthogonalEdgeStyle;rounded=0;orthogonalLoop=1;jettySize=auto;html=1;" edge="1" parent="1" source="BrHOTUcKLxsAqnwu4U0T-3" target="BrHOTUcKLxsAqnwu4U0T-5">
          <mxGeometry relative="1" as="geometry" />
        </mxCell>
        <mxCell id="BrHOTUcKLxsAqnwu4U0T-3" value="Calcular residuo dividido 2&amp;nbsp;" style="rounded=0;whiteSpace=wrap;html=1;" vertex="1" parent="1">
          <mxGeometry x="350" y="270" width="120" height="60" as="geometry" />
        </mxCell>
        <mxCell id="BrHOTUcKLxsAqnwu4U0T-13" value="" style="edgeStyle=orthogonalEdgeStyle;rounded=0;orthogonalLoop=1;jettySize=auto;html=1;" edge="1" parent="1" source="BrHOTUcKLxsAqnwu4U0T-5" target="BrHOTUcKLxsAqnwu4U0T-6">
          <mxGeometry relative="1" as="geometry" />
        </mxCell>
        <mxCell id="BrHOTUcKLxsAqnwu4U0T-14" value="" style="edgeStyle=orthogonalEdgeStyle;rounded=0;orthogonalLoop=1;jettySize=auto;html=1;" edge="1" parent="1" source="BrHOTUcKLxsAqnwu4U0T-5" target="BrHOTUcKLxsAqnwu4U0T-7">
          <mxGeometry relative="1" as="geometry" />
        </mxCell>
        <mxCell id="BrHOTUcKLxsAqnwu4U0T-5" value="Es residuo mayor a 0?" style="rhombus;whiteSpace=wrap;html=1;" vertex="1" parent="1">
          <mxGeometry x="332" y="370" width="156" height="140" as="geometry" />
        </mxCell>
        <mxCell id="BrHOTUcKLxsAqnwu4U0T-16" value="" style="edgeStyle=orthogonalEdgeStyle;rounded=0;orthogonalLoop=1;jettySize=auto;html=1;" edge="1" parent="1" source="BrHOTUcKLxsAqnwu4U0T-6" target="BrHOTUcKLxsAqnwu4U0T-8">
          <mxGeometry relative="1" as="geometry">
            <Array as="points">
              <mxPoint x="660" y="680" />
              <mxPoint x="410" y="680" />
            </Array>
          </mxGeometry>
        </mxCell>
        <mxCell id="BrHOTUcKLxsAqnwu4U0T-6" value="Es impar" style="shape=parallelogram;perimeter=parallelogramPerimeter;whiteSpace=wrap;html=1;fixedSize=1;" vertex="1" parent="1">
          <mxGeometry x="580" y="405" width="160" height="70" as="geometry" />
        </mxCell>
        <mxCell id="BrHOTUcKLxsAqnwu4U0T-15" value="" style="edgeStyle=orthogonalEdgeStyle;rounded=0;orthogonalLoop=1;jettySize=auto;html=1;" edge="1" parent="1" source="BrHOTUcKLxsAqnwu4U0T-7" target="BrHOTUcKLxsAqnwu4U0T-8">
          <mxGeometry relative="1" as="geometry" />
        </mxCell>
        <mxCell id="BrHOTUcKLxsAqnwu4U0T-7" value="Es par" style="shape=parallelogram;perimeter=parallelogramPerimeter;whiteSpace=wrap;html=1;fixedSize=1;" vertex="1" parent="1">
          <mxGeometry x="325" y="540" width="170" height="70" as="geometry" />
        </mxCell>
        <mxCell id="BrHOTUcKLxsAqnwu4U0T-8" value="Final" style="ellipse;whiteSpace=wrap;html=1;" vertex="1" parent="1">
          <mxGeometry x="350" y="710" width="120" height="80" as="geometry" />
        </mxCell>
      </root>
    </mxGraphModel>
  </diagram>
</mxfile>
